<svg width="200" height="176" viewBox="0 0 200 176" fill="none" xmlns="http://www.w3.org/2000/svg">
<path d="M168.737 46.9975L15.5443 88.0452C10.9415 89.2786 8.20973 94.0101 9.44306 98.6129L27.7826 167.057C29.0159 171.66 33.7475 174.392 38.3503 173.158L191.543 132.11C196.146 130.877 198.878 126.146 197.644 121.543L179.305 53.0987C178.071 48.4959 173.34 45.7641 168.737 46.9975V46.9975Z" fill="#8EAFE2"/>
<path d="M92.7356 130.804L123.267 122.624L130.212 148.544L99.681 156.725L92.7356 130.804Z" fill="#7C93DD"/>
<path d="M24.3322 75.478C41.1084 63.1988 66.4674 56.6979 90.9262 62.9892L108.677 129.235C80.8095 122.067 51.7746 131.505 35.5954 147.175L19.8402 88.3755C18.5504 83.562 20.3109 78.4212 24.3322 75.478V75.478Z" fill="#FAE0BD"/>
<path d="M154.843 40.5078C134.174 38.2618 108.963 45.3113 90.9262 62.9892L108.677 129.235C129.227 109.094 159.09 102.75 180.937 108.231L165.182 49.4314C163.892 44.6179 159.797 41.0461 154.843 40.5078Z" fill="#FBF1CF"/>
<path d="M108.677 129.236C80.8095 122.068 51.7746 131.505 35.5954 147.175L37.7673 155.28C38.443 157.803 41.0355 159.299 43.5576 158.624L179.766 122.127C182.288 121.451 183.785 118.858 183.109 116.336L180.937 108.231C159.09 102.75 129.227 109.094 108.677 129.236Z" fill="#E0B799"/>
<path d="M151.71 57.5356L144.139 59.5643C136.676 31.7124 107.95 15.1271 80.101 22.5891C52.2524 30.0511 35.6671 58.7777 43.13 86.6296L35.5589 88.6583C33.1623 89.3004 30.7389 87.7647 30.2672 85.3288C23.8876 52.4041 44.0469 19.5684 76.9307 10.7572C109.814 1.94605 143.691 20.3029 154.628 52.0064C155.438 54.3515 154.107 56.8935 151.71 57.5356V57.5356Z" fill="#EDA1AB"/>
<path d="M48.1628 27.3181C33.3472 42.0855 26.074 63.6876 30.267 85.329C30.739 87.7648 33.1624 89.3005 35.5587 88.6584L43.1298 86.6298C38.774 70.3738 42.6132 53.8216 52.0998 41.3718C49.6806 36.6998 48.2682 31.7723 48.1628 27.3181Z" fill="#E58996"/>
<path d="M144.139 59.5643L132.308 62.7346C126.593 41.407 104.596 28.7068 83.2713 34.4207C61.9471 40.1345 49.2469 62.1318 54.9616 83.4593L43.1297 86.6297C35.6668 58.7777 52.2524 30.0511 80.1007 22.5892C107.95 15.1267 136.676 31.7124 144.139 59.5643V59.5643Z" fill="#F6EE86"/>
<path d="M132.308 62.7346L124.767 64.7552C122.492 65.3645 120.081 64.2452 119.151 62.0823C113.785 49.6085 99.9416 42.6349 86.4416 46.2523C72.9416 49.8696 64.4397 62.8307 66.0298 76.316C66.3054 78.6544 64.7771 80.8293 62.5026 81.4388L54.9617 83.4594C49.247 62.1318 61.9471 40.1345 83.2714 34.4207C104.596 28.7069 126.593 41.407 132.308 62.7346Z" fill="#8EE2E1"/>
<path d="M74.2578 97.7797L45.4106 105.509C44.0361 105.878 42.6239 105.062 42.2557 103.688C41.8875 102.314 42.7027 100.901 44.0772 100.533L72.9244 92.8033C74.2989 92.435 75.7111 93.2506 76.0793 94.6248C76.4475 95.9989 75.6323 97.4114 74.2578 97.7797Z" fill="#4E5660"/>
<path d="M151.604 77.055L122.757 84.7845C121.382 85.1528 119.97 84.3372 119.602 82.9631C119.233 81.5889 120.049 80.1764 121.423 79.8081L150.27 72.0786C151.645 71.7103 153.057 72.5259 153.425 73.9C153.793 75.2742 152.978 76.6867 151.604 77.055Z" fill="#4E5660"/>
<path d="M77.4844 109.821L48.6372 117.551C47.2627 117.919 45.8505 117.103 45.4823 115.729C45.1141 114.355 45.9293 112.943 47.3038 112.574L76.151 104.845C77.5255 104.476 78.9377 105.292 79.3059 106.666C79.6741 108.04 78.8589 109.453 77.4844 109.821Z" fill="#4E5660"/>
<path d="M52.1001 41.3717C42.6135 53.8218 38.7742 70.3737 43.13 86.6296L54.9619 83.4593C51.9641 72.2713 54.0361 60.9001 59.7598 51.7912C56.6626 48.7449 54.0541 45.1449 52.1001 41.3717V41.3717Z" fill="#F2D98D"/>
<path d="M54.9617 83.4594L62.5026 81.4388C64.7768 80.8294 66.3054 78.6544 66.0298 76.316C65.2879 70.0237 66.7444 63.8467 69.8794 58.6786C66.1506 57.1264 62.7316 54.7136 59.7595 51.791C54.0359 60.9002 51.9638 72.2711 54.9617 83.4594V83.4594Z" fill="#6AD7BE"/>
</svg>
