<svg width="250" height="200" viewBox="0 0 250 200" fill="none" xmlns="http://www.w3.org/2000/svg">
<path d="M12.4296 129.155C20.2172 95.4796 43 82.4937 66.5 53.4968C90 24.5 107.54 -0.492398 139.94 0.00963235C175.107 0.554523 178.38 22.3513 193.342 40.8785C232.973 84.8627 230.147 135.694 203.696 166.755C169.116 198.905 134.786 198.905 91.9877 199.995C55.7731 199.45 43.2193 191.44 26.0526 179.288C11.0433 159.988 6.70278 149.049 12.4296 129.155Z" fill="#F6EE55"/>
<path fill-rule="evenodd" clip-rule="evenodd" d="M188.525 42.8149C185.241 42.5776 180.146 44.5718 170.838 54.1124C168.59 56.4161 164.901 56.4616 162.597 54.2141C160.293 51.9666 160.248 48.2771 162.495 45.9734C171.885 36.3493 180.347 30.5388 189.365 31.1902C193.893 31.5173 197.852 33.4383 201.416 36.0823C204.862 38.6387 208.216 42.0791 211.637 45.9685C218.391 52.1806 222.454 53.738 225.626 53.6345C229.084 53.5217 233.332 51.4297 240.464 45.5472C242.947 43.4994 246.62 43.8521 248.668 46.335C250.716 48.8179 250.363 52.4908 247.88 54.5386C240.675 60.481 233.736 65.0312 226.006 65.2833C218.023 65.5437 210.951 61.2232 203.498 54.3175C203.35 54.1802 203.209 54.0353 203.076 53.8834C199.729 50.064 196.967 47.2932 194.472 45.4429C192.027 43.629 190.148 42.9322 188.525 42.8149Z" fill="black"/>
<path d="M35.9496 93.2656C35.3207 93.5187 34.7756 93.5398 34.3144 93.3288C33.8532 93.1179 33.5178 92.8438 33.3082 92.5063C33.0147 92.0845 32.9308 91.6416 33.0566 91.1776C33.1824 90.7137 33.5388 90.3129 34.1258 89.9755C35.0901 89.4272 36.306 88.9843 37.7735 88.6468C39.2409 88.2672 40.8132 88.1617 42.4903 88.3305C44.1675 88.4992 45.6978 88.9632 47.0814 89.7224C48.507 90.4395 49.7019 91.3675 50.6663 92.5063C51.6725 93.6452 52.4272 94.9528 52.9304 96.4291C53.4754 97.8633 53.727 99.3817 53.685 100.985C53.6012 102.672 53.2658 104.359 52.6788 106.046C52.1337 107.733 51.3581 109.315 50.3518 110.792C49.3875 112.268 48.2135 113.618 46.8299 114.841C45.4882 116.022 43.9997 116.95 42.3646 117.625C41.2325 117.92 40.373 117.962 39.786 117.751C39.199 117.54 38.8007 117.287 38.5911 116.992C38.5072 116.781 38.4653 116.507 38.4653 116.17C38.5072 115.79 38.7378 115.41 39.1571 115.031C38.654 110.939 38.3395 106.995 38.2137 103.199C38.1299 99.3607 38.0879 95.8597 38.0879 92.6961C37.3752 92.8227 36.6624 93.0125 35.9496 93.2656ZM42.8048 92.4431C42.5532 92.4009 42.2807 92.3798 41.9872 92.3798C41.7356 92.3376 41.4841 92.3165 41.2325 92.3165C41.4841 92.654 41.6937 93.0758 41.8614 93.5819C42.0291 94.0459 42.113 94.5099 42.113 94.9739C42.113 97.5469 42.134 100.31 42.1759 103.262C42.2597 106.215 42.4694 109.4 42.8048 112.816C44.6496 111.466 46.2219 109.779 47.5217 107.755C48.8634 105.688 49.5761 103.515 49.66 101.238C49.7019 99.1287 49.1778 97.2727 48.0877 95.6699C46.9976 94.0248 45.2366 92.9492 42.8048 92.4431Z" fill="black"/>
<path d="M72.949 96.176C74.2069 96.64 75.2551 97.336 76.0936 98.264C76.9741 99.1919 77.6449 100.246 78.1061 101.428C78.5674 102.566 78.8189 103.747 78.8608 104.971C78.9447 106.194 78.8189 107.333 78.4835 108.387C78.0223 109.568 77.4353 110.728 76.7225 111.867C76.0098 113.006 75.1922 114.018 74.2698 114.904C73.3474 115.79 72.2992 116.507 71.1252 117.055C69.9512 117.604 68.6514 117.878 67.2259 117.878C65.5069 117.878 64.0604 117.477 62.8864 116.676C61.7124 115.874 60.79 114.841 60.1192 113.575C59.4483 112.31 59.0081 110.876 58.7984 109.273C58.6307 107.67 58.6726 106.067 58.9242 104.464C59.0919 103.283 59.3645 102.145 59.7418 101.048C60.1611 99.909 60.6852 98.9178 61.3141 98.0742C61.943 97.1884 62.6558 96.4713 63.4524 95.9229C64.291 95.3746 65.2343 95.1004 66.2825 95.1004C66.8695 95.1004 67.6033 95.227 68.4837 95.4801C69.3642 95.691 70.1818 96.0073 70.9365 96.4291C71.4816 95.9229 72.1524 95.8386 72.949 96.176ZM70.5592 100.795C70.098 100.5 69.5529 100.12 68.924 99.6559C68.337 99.1498 67.8129 98.8967 67.3517 98.8967C66.8486 98.8967 66.3454 99.1287 65.8423 99.5927C65.3811 100.057 64.9618 100.605 64.5845 101.238C64.249 101.828 63.9555 102.44 63.704 103.073C63.4524 103.705 63.2847 104.211 63.2008 104.591C63.0751 105.224 62.9912 105.983 62.9493 106.869C62.9073 107.755 62.9702 108.64 63.1379 109.526C63.3057 110.37 63.6201 111.15 64.0813 111.867C64.5845 112.542 65.3182 113.027 66.2825 113.322C66.8695 113.491 67.5613 113.491 68.358 113.322C69.1546 113.111 69.9302 112.753 70.6849 112.247C71.4816 111.741 72.2153 111.066 72.8861 110.222C73.5989 109.379 74.144 108.408 74.5213 107.312C74.9406 106.088 74.9406 104.823 74.5213 103.515C74.144 102.166 73.3473 101.196 72.1314 100.605C71.838 100.816 71.5445 100.921 71.251 100.921C70.9575 100.921 70.7269 100.879 70.5592 100.795Z" fill="black"/>
<path d="M98.3759 96.176C99.6337 96.64 100.682 97.336 101.52 98.264C102.401 99.1919 103.072 100.246 103.533 101.428C103.994 102.566 104.246 103.747 104.288 104.971C104.372 106.194 104.246 107.333 103.91 108.387C103.449 109.568 102.862 110.728 102.149 111.867C101.437 113.006 100.619 114.018 99.6966 114.904C98.7742 115.79 97.726 116.507 96.5521 117.055C95.3781 117.604 94.0783 117.878 92.6528 117.878C90.9337 117.878 89.4872 117.477 88.3133 116.676C87.1393 115.874 86.2169 114.841 85.546 113.575C84.8752 112.31 84.4349 110.876 84.2253 109.273C84.0576 107.67 84.0995 106.067 84.3511 104.464C84.5188 103.283 84.7913 102.145 85.1687 101.048C85.588 99.909 86.1121 98.9178 86.741 98.0742C87.3699 97.1884 88.0827 96.4713 88.8793 95.9229C89.7178 95.3746 90.6612 95.1004 91.7094 95.1004C92.2964 95.1004 93.0301 95.227 93.9106 95.4801C94.7911 95.691 95.6087 96.0073 96.3634 96.4291C96.9084 95.9229 97.5793 95.8386 98.3759 96.176ZM95.986 100.795C95.5248 100.5 94.9798 100.12 94.3509 99.6559C93.7639 99.1498 93.2398 98.8967 92.7786 98.8967C92.2754 98.8967 91.7723 99.1287 91.2692 99.5927C90.808 100.057 90.3887 100.605 90.0113 101.238C89.6759 101.828 89.3824 102.44 89.1308 103.073C88.8793 103.705 88.7116 104.211 88.6277 104.591C88.5019 105.224 88.4181 105.983 88.3762 106.869C88.3342 107.755 88.3971 108.64 88.5648 109.526C88.7325 110.37 89.047 111.15 89.5082 111.867C90.0113 112.542 90.7451 113.027 91.7094 113.322C92.2964 113.491 92.9882 113.491 93.7848 113.322C94.5815 113.111 95.3571 112.753 96.1118 112.247C96.9084 111.741 97.6422 111.066 98.313 110.222C99.0258 109.379 99.5709 108.408 99.9482 107.312C100.367 106.088 100.367 104.823 99.9482 103.515C99.5709 102.166 98.7742 101.196 97.5583 100.605C97.2648 100.816 96.9713 100.921 96.6778 100.921C96.3843 100.921 96.1537 100.879 95.986 100.795Z" fill="black"/>
<path d="M119.966 86.1793C119.841 85.42 119.883 84.724 120.092 84.0913C120.344 83.4586 120.826 83.1001 121.539 83.0157C122.168 82.9314 122.713 83.1001 123.174 83.5219C123.677 83.9437 123.991 84.492 124.117 85.1669C124.956 90.0177 125.731 94.8473 126.444 99.6559C127.199 104.422 127.87 109.104 128.457 113.702C128.624 114.925 128.541 115.769 128.205 116.233C127.87 116.655 127.471 116.971 127.01 117.182C126.507 117.393 126.025 117.393 125.564 117.182C125.144 116.971 124.872 116.591 124.746 116.043L124.683 115.663L124.432 115.727C123.048 116.233 121.602 116.528 120.092 116.612C118.583 116.655 117.136 116.465 115.753 116.043C114.369 115.621 113.132 114.946 112.042 114.018C110.994 113.048 110.239 111.825 109.778 110.349C108.772 107.101 109.401 104.148 111.665 101.491C112.629 100.394 113.824 99.4028 115.25 98.517C116.675 97.6313 118.394 96.9353 120.407 96.4291L121.539 96.176L119.966 86.1793ZM113.614 108.767C113.866 109.779 114.327 110.56 114.998 111.108C115.669 111.656 116.465 112.036 117.388 112.247C118.31 112.416 119.296 112.437 120.344 112.31C121.392 112.184 122.419 111.952 123.425 111.614L123.991 111.424L122.231 100.289L120.973 100.605C120.092 100.858 119.149 101.259 118.143 101.807C117.178 102.313 116.319 102.925 115.564 103.642C114.809 104.359 114.222 105.16 113.803 106.046C113.426 106.932 113.363 107.839 113.614 108.767Z" fill="black"/>
<path d="M137.099 88.6468C137.309 93.2445 137.665 98.0109 138.169 102.946C138.672 107.839 139.217 112.521 139.804 116.992C139.93 118.848 139.426 119.797 138.294 119.839C138.043 119.839 137.791 119.755 137.54 119.586C137.288 119.375 137.058 119.122 136.848 118.827C136.638 118.532 136.429 118.215 136.219 117.878C136.051 117.54 135.946 117.245 135.905 116.992C135.569 114.841 135.255 112.563 134.961 110.159C134.668 107.755 134.395 105.35 134.144 102.946C133.934 100.5 133.745 98.1163 133.578 95.7964C133.41 93.4765 133.305 91.3464 133.263 89.4061C133.347 88.3937 133.494 87.5501 133.703 86.8752C133.913 86.1582 134.353 85.8207 135.024 85.8629C135.737 85.9051 136.24 86.2003 136.533 86.7487C136.869 87.2549 137.058 87.8876 137.099 88.6468Z" fill="black"/>
<path d="M160.18 103.389C158.545 104.359 156.784 105.118 154.897 105.667C153.01 106.173 150.977 106.426 148.796 106.426C148.88 107.902 149.299 109.083 150.054 109.969C150.809 110.813 151.752 111.319 152.884 111.488C153.555 111.572 154.226 111.551 154.897 111.424C155.61 111.298 156.259 111.108 156.846 110.855C157.475 110.56 158.041 110.243 158.545 109.906C159.048 109.568 159.488 109.231 159.865 108.893C160.243 108.556 160.641 108.345 161.06 108.261C161.479 108.134 161.794 108.113 162.004 108.197C162.591 108.408 162.8 109.041 162.632 110.096C161.962 111.445 160.997 112.605 159.739 113.575C158.482 114.503 157.077 115.094 155.526 115.347C154.184 115.6 152.8 115.537 151.375 115.157C149.949 114.778 148.671 114.039 147.538 112.943C146.574 111.973 145.84 110.834 145.337 109.526C144.834 108.219 144.52 106.869 144.394 105.477C144.268 104.169 144.373 102.925 144.708 101.744C145.086 100.563 145.652 99.5294 146.406 98.6436C147.161 97.7156 148.105 96.9564 149.237 96.3658C150.369 95.7753 151.689 95.4379 153.199 95.3535C155.002 95.227 156.637 95.5644 158.104 96.3658C159.572 97.1673 160.599 98.2851 161.186 99.7192C161.521 100.521 161.605 101.217 161.438 101.807C161.312 102.398 160.892 102.925 160.18 103.389ZM152.947 99.0865C152.528 99.1708 152.067 99.3185 151.564 99.5294C151.102 99.7403 150.662 100.014 150.243 100.352C149.865 100.647 149.509 101.006 149.174 101.428C148.88 101.807 148.712 102.25 148.671 102.756C149.383 102.756 150.159 102.693 150.998 102.566C151.878 102.44 152.717 102.292 153.513 102.123C154.352 101.913 155.106 101.681 155.777 101.428C156.49 101.174 157.077 100.9 157.538 100.605C157.203 99.8036 156.574 99.3185 155.651 99.1498C154.771 98.9389 153.87 98.9178 152.947 99.0865Z" fill="black"/>
<path d="M188.392 94.531C188.56 95.2902 188.727 96.1971 188.895 97.2516C189.063 98.264 189.168 99.3396 189.21 100.478C189.293 101.575 189.314 102.714 189.272 103.895C189.231 105.076 189.105 106.215 188.895 107.312C188.644 108.577 188.14 109.737 187.386 110.792C186.631 111.846 185.709 112.795 184.618 113.639C183.57 114.482 182.396 115.178 181.097 115.727C179.839 116.233 178.56 116.612 177.26 116.866C176.002 117.076 174.744 117.119 173.487 116.992C172.271 116.823 171.181 116.465 170.216 115.916C169.126 115.284 168.246 114.461 167.575 113.449C166.904 112.437 166.611 111.192 166.694 109.716C166.778 108.282 166.904 106.974 167.072 105.793C167.239 104.57 167.449 103.41 167.701 102.313C167.994 101.217 168.309 100.12 168.644 99.0232C168.979 97.8843 169.336 96.7033 169.713 95.4801C169.923 94.9317 170.3 94.6154 170.845 94.531C171.055 94.4888 171.306 94.4888 171.6 94.531C171.726 94.531 171.893 94.6154 172.103 94.7841C172.355 94.9106 172.585 95.1004 172.795 95.3535C173.004 95.6066 173.172 95.9019 173.298 96.2393C173.466 96.5767 173.487 96.9564 173.361 97.3782C172.984 98.728 172.606 100.099 172.229 101.491C171.851 102.883 171.516 104.211 171.223 105.477C170.971 106.742 170.803 107.881 170.719 108.893C170.678 109.864 170.782 110.623 171.034 111.171C171.579 111.973 172.313 112.5 173.235 112.753C174.199 112.964 175.206 112.985 176.254 112.816C177.302 112.648 178.308 112.373 179.273 111.994C180.279 111.572 181.138 111.129 181.851 110.665C182.983 109.906 183.801 108.957 184.304 107.818C184.849 106.679 185.185 105.435 185.31 104.085C185.436 102.735 185.415 101.322 185.247 99.8457C185.122 98.3694 184.933 96.9142 184.681 95.4801C184.598 95.1004 184.618 94.6154 184.744 94.0248C184.87 93.4343 185.205 92.9703 185.751 92.6329C186.338 92.2954 186.862 92.3376 187.323 92.7594C187.826 93.1812 188.182 93.7717 188.392 94.531Z" fill="black"/>
<path d="M204.908 125.154C204.866 125.618 204.657 126.04 204.279 126.419C203.902 126.841 203.483 127.031 203.022 126.989C202.309 126.947 201.764 126.673 201.386 126.166C201.009 125.66 200.82 125.238 200.82 124.901C200.82 123.298 200.779 121.632 200.695 119.903C200.611 118.131 200.506 116.317 200.38 114.461C199.835 114.546 199.332 114.503 198.871 114.335C198.452 114.124 198.158 113.807 197.99 113.386C197.697 112.669 197.739 112.036 198.116 111.488C198.493 110.939 199.101 110.412 199.94 109.906C199.73 108.345 199.521 106.806 199.311 105.287C199.143 103.769 198.955 102.292 198.745 100.858C198.703 100.605 198.724 100.373 198.808 100.162C198.892 99.9512 198.997 99.7614 199.122 99.5927C199.248 99.3817 199.479 99.1919 199.814 99.0232C200.359 98.8123 200.967 98.981 201.638 99.5294C202.351 100.078 202.833 100.774 203.085 101.617C203.21 102.419 203.336 103.347 203.462 104.401C203.63 105.414 203.776 106.531 203.902 107.755C204.783 107.206 205.6 106.616 206.355 105.983C207.152 105.35 207.822 104.675 208.367 103.958C208.954 103.241 209.395 102.503 209.688 101.744C209.982 100.942 210.066 100.12 209.94 99.2763C209.856 98.5592 209.541 97.9265 208.996 97.3782C208.451 96.7876 207.592 96.4713 206.418 96.4291C205.37 96.3869 204.321 96.4713 203.273 96.6822C202.267 96.8931 201.261 97.1673 200.254 97.5047C199.29 97.8422 198.326 98.2429 197.361 98.7069C196.439 99.1708 195.538 99.6348 194.657 100.099C194.07 100.436 193.483 100.584 192.896 100.542C192.351 100.457 191.995 100.246 191.827 99.909C191.45 99.0654 191.471 98.3061 191.89 97.6313C192.351 96.9564 193.043 96.3237 193.965 95.7331C194.762 95.2692 195.705 94.8052 196.795 94.3412C197.927 93.835 199.101 93.4132 200.317 93.0758C201.575 92.6961 202.833 92.4431 204.091 92.3165C205.391 92.1478 206.627 92.1689 207.801 92.3798C208.975 92.5485 210.024 92.9492 210.946 93.5819C211.91 94.1725 212.686 95.0582 213.273 96.2393C213.986 98.1796 214.174 99.9723 213.839 101.617C213.546 103.22 212.917 104.696 211.952 106.046C211.03 107.354 209.877 108.556 208.493 109.653C207.152 110.707 205.789 111.656 204.405 112.5C204.615 114.778 204.762 117.034 204.846 119.27C204.929 121.505 204.95 123.467 204.908 125.154Z" fill="black"/>
<path fill-rule="evenodd" clip-rule="evenodd" d="M0.00123826 167.969C0.0669161 164.751 2.72868 162.196 5.94645 162.261C41.2595 162.982 58.8992 167.031 85.8175 179.716C88.7289 181.088 89.9768 184.56 88.6048 187.471C87.2328 190.383 83.7605 191.631 80.8491 190.259C55.598 178.359 39.603 174.606 5.70861 173.914C2.49084 173.848 -0.0644402 171.186 0.00123826 167.969Z" fill="black"/>
</svg>
