<svg width="335" height="326" viewBox="0 0 335 326" fill="none" xmlns="http://www.w3.org/2000/svg">
<g clip-path="url(#clip0)">
<path d="M108.875 151.237L109.945 119.704C110.161 113.576 112.815 107.83 117.316 103.743L130.812 90.271C135.282 86.1499 141.872 85.327 147.994 85.6556L188.819 85.4205C201.54 86.1635 211.467 97.0135 211.078 109.751L210.657 150.18L108.875 151.237Z" fill="#CFD8DC"/>
<path d="M107.817 261.101L108.455 150.46L210.847 149.871L209.636 262.159C209.618 264.788 201.03 267.106 204.828 263.018C208.625 258.93 204.505 264.17 205.349 265.196L112.541 266.004C109.916 265.923 107.801 263.73 107.817 261.101C107.809 261.183 107.818 261.019 107.817 261.101Z" fill="#2196F3"/>
</g>
<defs>
<clipPath id="clip0">
<rect width="233.178" height="239.361" fill="white" transform="translate(334.041 168.604) rotate(137.545)"/>
</clipPath>
</defs>
</svg>
