<svg width="227" height="220" viewBox="0 0 227 220" fill="none" xmlns="http://www.w3.org/2000/svg">
<path d="M169.195 139.063C169.274 136.63 169.367 134.22 169.471 131.837C164.415 122.458 156.364 114.616 146.573 109.246C139.636 105.442 133.828 99.5819 130.398 90.7905C122.521 70.6013 132.834 54.7167 147.916 42.9558C162.729 31.4049 152.053 7.77151 133.554 11.0345C69.0056 22.4205 14.9349 78.8109 33.2022 143.989C42.4005 176.808 66.4422 197.677 93.4112 210.946C121.923 224.975 155.439 212.688 169.521 186.437C168.787 172.625 168.632 156.405 169.195 139.063Z" fill="#DBEDFF"/>
<path d="M121.437 200.013C94.4687 186.744 70.4266 165.875 61.2281 133.055C46.9973 82.2796 76.6685 36.8383 120.994 13.8522C62.2182 29.8657 16.1345 83.0912 33.2025 143.99C42.4009 176.809 66.4431 197.678 93.4115 210.947C113.611 220.886 136.32 217.614 152.853 205.528C142.486 206.683 131.641 205.034 121.437 200.013Z" fill="#B5DCFF"/>
<path d="M94.3909 76.3213C101.226 73.6548 104.604 65.9527 101.938 59.118C99.2714 52.2834 91.5693 48.9045 84.7347 51.571C77.9 54.2375 74.5211 61.9397 77.1876 68.7743C79.8541 75.6089 87.5563 78.9879 94.3909 76.3213Z" fill="#F4DD45"/>
<path d="M132.786 191.244C140.833 188.105 144.811 179.037 141.672 170.99C138.532 162.944 129.464 158.965 121.418 162.105C113.371 165.244 109.393 174.312 112.533 182.359C115.672 190.405 124.74 194.383 132.786 191.244Z" fill="#64D465"/>
<path d="M77.4598 122.987C86.0844 119.622 90.3482 109.903 86.9834 101.278C83.6185 92.6538 73.8992 88.3899 65.2746 91.7548C56.65 95.1197 52.3862 104.839 55.7511 113.464C59.1159 122.088 68.8353 126.352 77.4598 122.987Z" fill="#F87C68"/>
<path d="M89.6473 169.819C98.2719 166.454 102.536 156.735 99.1709 148.111C95.806 139.486 86.0867 135.222 77.4621 138.587C68.8375 141.952 64.5737 151.671 67.9386 160.296C71.3034 168.92 81.0228 173.184 89.6473 169.819Z" fill="#7FB3FA"/>
<path d="M91.1059 63.3443C89.4462 59.0902 90.1294 54.5009 92.5295 50.9982C90.0194 50.4208 87.3154 50.5647 84.7348 51.5715C77.9001 54.238 74.5212 61.9402 77.1878 68.7748C79.8543 75.6095 87.5564 78.9884 94.3911 76.3218C96.9717 75.315 99.0587 73.5897 100.514 71.4646C96.3766 70.5123 92.7656 67.5983 91.1059 63.3443V63.3443Z" fill="#FCC101"/>
<path d="M126.451 176.928C124.295 171.402 125.496 165.395 129.066 161.157C126.559 160.837 123.938 161.121 121.418 162.105C113.372 165.244 109.393 174.312 112.533 182.359C115.672 190.405 124.74 194.383 132.786 191.244C135.307 190.261 137.428 188.695 139.056 186.762C133.559 186.061 128.607 182.454 126.451 176.928Z" fill="#40C140"/>
<path d="M69.6693 108.033C67.2804 101.91 68.7399 95.2375 72.8722 90.6763C70.3685 90.4484 67.776 90.7789 65.2746 91.7548C56.6501 95.1196 52.3862 104.839 55.7511 113.464C59.1159 122.088 68.8353 126.352 77.4598 122.987C79.9612 122.011 82.0924 120.498 83.7805 118.635C77.651 118.078 72.0583 114.157 69.6693 108.033Z" fill="#EC625E"/>
<path d="M81.8568 154.866C79.4677 148.742 80.9274 142.07 85.0597 137.508C82.5562 137.281 79.9635 137.611 77.4621 138.587C68.8376 141.952 64.5737 151.671 67.9386 160.296C71.3034 168.92 81.0228 173.184 89.6473 169.819C92.1487 168.843 94.2799 167.33 95.968 165.468C89.8388 164.91 84.2458 160.989 81.8568 154.866V154.866Z" fill="#64A6F4"/>
<path d="M192.774 103.212L173.111 102.795L170.927 104.343C169.951 115.065 169.222 126.842 168.82 139.21C168.13 160.431 168.516 179.976 169.722 195.479C170.104 200.401 174.03 204.302 178.952 204.677C184.217 205.078 188.887 201.328 189.636 196.101C191.843 180.712 193.495 161.241 194.184 140.034C194.586 127.666 194.622 115.867 194.344 105.103L192.774 103.212Z" fill="#CE775F"/>
<path d="M180.989 192.705C179.784 177.202 179.397 157.657 180.087 136.436C180.471 124.609 181.156 113.326 182.068 102.985L173.111 102.795L170.927 104.343C169.951 115.066 169.221 126.843 168.82 139.21C168.13 160.431 168.516 179.977 169.721 195.479C170.104 200.401 174.029 204.303 178.952 204.678C182.238 204.928 185.292 203.561 187.306 201.228C183.822 199.854 181.292 196.604 180.989 192.705V192.705Z" fill="#C0694E"/>
<path d="M177.047 58.5138L191.211 58.9741C191.856 58.9952 192.457 59.1745 192.985 59.4692C196.352 55.3098 201.956 46.936 202.281 36.9363C202.639 25.9189 192.869 9.99055 188.316 3.19157C187.197 1.52071 184.782 1.44236 183.557 3.03699C178.573 9.52591 167.789 24.7866 167.431 35.8037C167.107 45.8034 172.155 54.5232 175.245 58.8925C175.791 58.6328 176.403 58.4926 177.047 58.5138Z" fill="#FFE97B"/>
<path d="M179.258 37.9786C179.552 28.9208 186.891 16.9994 192.263 9.43787C190.789 6.96412 189.403 4.81537 188.316 3.19157C187.197 1.52071 184.782 1.44236 183.557 3.03699C178.573 9.5259 167.789 24.7866 167.431 35.8037C167.106 45.803 172.155 54.5232 175.245 58.8925C175.791 58.6326 176.402 58.4928 177.047 58.5135L185.557 58.7898C182.574 54.0242 178.982 46.4628 179.258 37.9786V37.9786Z" fill="#F4DD45"/>
<path d="M175.161 71.8108C173.506 80.761 172.054 91.8454 170.926 104.343L194.344 105.104C194.03 92.5596 193.301 81.4041 192.23 72.3652C191.775 72.5324 191.282 72.6193 190.769 72.6027L176.604 72.1425C176.091 72.1259 175.605 72.0071 175.161 71.8108V71.8108Z" fill="#477B9E"/>
<path d="M182.194 101.568C183.183 90.6112 184.421 80.7409 185.827 72.4425L176.604 72.1429C176.091 72.1262 175.605 72.0074 175.161 71.8113C173.506 80.7615 172.054 91.8459 170.926 104.343L181.919 104.7C182.009 103.647 182.1 102.602 182.194 101.568Z" fill="#3F6D8E"/>
<path d="M191.226 58.5352L177.062 58.075C174.894 58.0045 173.079 59.7047 173.009 61.8724L172.793 68.5278C172.722 70.6954 174.423 72.51 176.59 72.5804L190.754 73.0406C192.922 73.1111 194.737 71.4109 194.807 69.2432L195.023 62.5879C195.094 60.4202 193.394 58.606 191.226 58.5352Z" fill="#DBEDFF"/>
<path d="M183.368 68.8936L183.601 61.747C183.647 60.3155 184.404 59.0761 185.519 58.3498L177.062 58.075C174.894 58.0045 173.079 59.7047 173.009 61.8724L172.793 68.5278C172.722 70.6954 174.423 72.51 176.59 72.5804L185.87 72.882C184.349 72.2053 183.311 70.6596 183.368 68.8936V68.8936Z" fill="#B5DCFF"/>
</svg>
